<svg xmlns:dc="http://purl.org/dc/elements/1.1/" xmlns:cc="http://creativecommons.org/ns#" xmlns:rdf="http://www.w3.org/1999/02/22-rdf-syntax-ns#" xmlns:svg="http://www.w3.org/2000/svg" xmlns="http://www.w3.org/2000/svg" xmlns:xlink="http://www.w3.org/1999/xlink" id="svg77543" viewBox="0 0 1024 768" height="768px" width="1024px" version="1.1">
  <metadata id="metadata77549">
    <rdf:rdf>
      <cc:work rdf:about="">
        <dc:format>image/svg+xml</dc:format>
        <dc:type rdf:resource="http://purl.org/dc/dcmitype/StillImage"></dc:type>
      </cc:work>
    </rdf:rdf>
  </metadata>
  <defs id="defs77547"></defs>
  <linearGradient spreadMethod="pad" y2="30%" x2="-10%" y1="120%" x1="30%" id="3d_gradient2-logo-0bbba305-41b4-461f-84e6-173f1967b79e">
    <stop id="stop77524" stop-opacity="1" stop-color="#ffffff" offset="0%"></stop>
    <stop id="stop77526" stop-opacity="1" stop-color="#000000" offset="100%"></stop>
  </linearGradient>
  <linearGradient gradientTransform="rotate(-30)" spreadMethod="pad" y2="30%" x2="-10%" y1="120%" x1="30%" id="3d_gradient3-logo-0bbba305-41b4-461f-84e6-173f1967b79e">
    <stop id="stop77529" stop-opacity="1" stop-color="#ffffff" offset="0%"></stop>
    <stop id="stop77531" stop-opacity="1" stop-color="#cccccc" offset="50%"></stop>
    <stop id="stop77533" stop-opacity="1" stop-color="#000000" offset="100%"></stop>
  </linearGradient>
  <g id="logo-group">
    <image xlink:href="" id="container" x="272" y="144" width="480" height="480" style="display: none;" transform="translate(0 0)"></image>
    <g id="logo-center" transform="translate(0 0)">
      <image xlink:href="" id="icon_container" style="display: none;" x="0" y="0"></image>
      <g id="slogan" style="font-style:normal;font-weight:400;font-size:32px;line-height:1;font-family:'Archivo Narrow';font-variant-ligatures:none;text-align:center;text-anchor:middle" transform="translate(0 0)"></g>
      <g id="title" style="font-style:normal;font-weight:normal;font-size:72px;line-height:1;font-family:'Brandmark Sans 39';font-variant-ligatures:normal;text-align:center;text-anchor:middle" transform="translate(0 0)">
        <path id="path77552" style="font-style:normal;font-weight:normal;font-size:72px;line-height:1;font-family:'Brandmark Sans 39';font-variant-ligatures:normal;text-align:center;text-anchor:middle" d="m 411.06837,0 h 6.33601 v -19.656 l -1.368,-16.344 -0.28801,-1.656 h 0.72 L 423.16437,0 h 5.04001 l 6.69599,-37.656 h 0.72001 l -0.288,1.656 -1.368,16.344 V 0 h 6.33599 v -48.96 h -5.544 c -2.08799,0 -3.74399,1.368 -4.104,3.456 l -3.456,20.304 -1.512,12.6 -1.512,-12.528 -3.456,-20.376 c -0.35999,-2.088 -2.016,-3.456 -4.104,-3.456 h -5.544 z" stroke-width="0" stroke-linejoin="miter" stroke-miterlimit="2" fill="#409eff" stroke="#409eff" transform="translate(0 400.23999999999995) translate(7.460000000000093 -138.64000000000001) scale(5) translate(-411.06837 48.96)"></path>
        <path id="path77554" style="font-style:normal;font-weight:normal;font-size:72px;line-height:1;font-family:'Brandmark Sans 39';font-variant-ligatures:normal;text-align:center;text-anchor:middle" d="m 443.41212,-40.104 v 31.248 c 0,5.112 4.104,9.216 9.216,9.216 5.112,0 9.21601,-4.104 9.21601,-9.216 v -31.248 c 0,-5.112 -4.10401,-9.216 -9.21601,-9.216 -5.112,0 -9.216,4.104 -9.216,9.216 z m 6.33601,31.248 v -31.248 c 0,-1.656 1.22399,-3.024 2.87999,-3.024 1.65601,0 2.88,1.368 2.88,3.024 v 31.248 c 0,1.656 -1.22399,3.024 -2.88,3.024 -1.656,0 -2.87999,-1.368 -2.87999,-3.024 z" stroke-width="0" stroke-linejoin="miter" stroke-miterlimit="2" fill="#409eff" stroke="#409eff" transform="translate(0 400.23999999999995) translate(169.17874999999995 -140.44) scale(5) translate(-443.41212 49.32)"></path>
        <path id="path77556" style="font-style:normal;font-weight:normal;font-size:72px;line-height:1;font-family:'Brandmark Sans 39';font-variant-ligatures:normal;text-align:center;text-anchor:middle" d="m 465.06837,0 h 6.33601 v -21.456 h 5.75999 V 0 h 6.33601 v -48.96 h -6.33601 v 21.384 h -5.75999 V -48.96 h -6.33601 z" stroke-width="0" stroke-linejoin="miter" stroke-miterlimit="2" fill="#409eff" stroke="#409eff" transform="translate(0 400.23999999999995) translate(277.46 -138.64000000000001) scale(5) translate(-465.06837 48.96)"></path>
        <path id="path77558" style="font-style:normal;font-weight:normal;font-size:72px;line-height:1;font-family:'Brandmark Sans 39';font-variant-ligatures:normal;text-align:center;text-anchor:middle" d="m 492.98863,0.216 c 4.10399,0 5.83199,-4.752 5.83199,-7.056 V 0 h 6.33601 v -48.96 h -6.33601 v 40.104 c 0,1.656 -1.22399,3.024 -2.88,3.024 -1.656,0 -2.87999,-1.368 -2.87999,-3.024 V -48.96 h -6.33601 v 40.752 c 0,4.896 2.52,8.424 6.26401,8.424 z" stroke-width="0" stroke-linejoin="miter" stroke-miterlimit="2" fill="#409eff" stroke="#409eff" transform="translate(0 400.23999999999995) translate(385.74125000000004 -138.64000000000001) scale(5) translate(-486.72462 48.96)"></path>
        <path id="path77560" style="font-style:normal;font-weight:normal;font-size:72px;line-height:1;font-family:'Brandmark Sans 39';font-variant-ligatures:normal;text-align:center;text-anchor:middle" d="m 512.77287,7.2 h 8.424 V 1.08 h -5.4 c -0.576,0 -1.08,-0.504 -1.08,-1.08 v -48.96 c 0,-0.576 0.504,-1.08 1.08,-1.08 h 5.4 v -6.12 h -8.424 c -2.51999,0 -4.392,1.872 -4.392,4.392 V 2.808 c 0,2.52 1.87201,4.392 4.392,4.392 z" stroke-width="0" stroke-linejoin="miter" stroke-miterlimit="2" fill="#409eff" stroke="#409eff" transform="translate(0 400.23999999999995) translate(494.02250000000004 -174.63999999999996) scale(5) translate(-508.38087 56.16)"></path>
        <path id="path77562" style="font-style:normal;font-weight:normal;font-size:72px;line-height:1;font-family:'Brandmark Sans 39';font-variant-ligatures:normal;text-align:center;text-anchor:middle" d="m 524.41212,-40.104 v 31.248 c 0,5.112 4.104,9.216 9.216,9.216 5.11201,0 9.216,-4.104 9.216,-9.216 v -7.704 h -6.336 v 7.704 c 0,1.656 -1.22399,3.024 -2.88,3.024 -1.656,0 -2.88,-1.368 -2.88,-3.024 v -31.248 c 0,-1.656 1.224,-3.024 2.88,-3.024 1.65601,0 2.88,1.368 2.88,3.024 v 7.704 h 6.336 v -7.704 c 0,-5.112 -4.10399,-9.216 -9.216,-9.216 -5.112,0 -9.216,4.104 -9.216,9.216 z" stroke-width="0" stroke-linejoin="miter" stroke-miterlimit="2" fill="#409eff" stroke="#409eff" transform="translate(0 400.23999999999995) translate(574.1787499999999 -140.44) scale(5) translate(-524.41212 49.32)"></path>
        <path id="path77564" style="font-style:normal;font-weight:normal;font-size:72px;line-height:1;font-family:'Brandmark Sans 39';font-variant-ligatures:normal;text-align:center;text-anchor:middle" d="m 546.06837,0 h 6.336 V -19.656 L 551.03638,-36 l -0.28801,-1.656 h 0.72001 L 558.16437,0 h 5.04001 l 6.69599,-37.656 h 0.72 l -0.288,1.656 -1.36799,16.344 V 0 h 6.336 v -48.96 h -5.544 c -2.08801,0 -3.744,1.368 -4.10401,3.456 l -3.456,20.304 -1.51199,12.6 -1.51201,-12.528 -3.456,-20.376 c -0.36,-2.088 -2.016,-3.456 -4.10399,-3.456 h -5.54401 z" stroke-width="0" stroke-linejoin="miter" stroke-miterlimit="2" fill="#409eff" stroke="#409eff" transform="translate(0 400.23999999999995) translate(682.4599999999998 -138.64000000000001) scale(5) translate(-546.06837 48.96)"></path>
        <path id="path77566" style="font-style:normal;font-weight:normal;font-size:72px;line-height:1;font-family:'Brandmark Sans 39';font-variant-ligatures:normal;text-align:center;text-anchor:middle" d="m 590.50812,-14.4 v 5.544 c 0,1.656 -1.22399,3.024 -2.88,3.024 -1.656,0 -2.88,-1.368 -2.88,-3.024 v -7.704 h -6.336 v 7.704 c 0,5.112 4.104,9.216 9.216,9.216 5.11201,0 9.216,-4.104 9.216,-9.216 V -14.4 c 0,-5.184 -3.88799,-9.216 -6.98399,-12.456 -3.024,-3.168 -5.11201,-5.4 -5.11201,-7.704 v -5.544 c 0,-1.656 1.224,-3.024 2.88,-3.024 1.65601,0 2.88,1.368 2.88,3.024 v 7.704 h 6.336 v -7.704 c 0,-5.112 -4.10399,-9.216 -9.216,-9.216 -5.112,0 -9.216,4.104 -9.216,9.216 v 5.544 c 0,4.896 3.744,8.784 6.84,12.024 3.024,3.168 5.256,5.544 5.256,8.136 z" stroke-width="0" stroke-linejoin="miter" stroke-miterlimit="2" fill="#409eff" stroke="#409eff" transform="translate(0 400.23999999999995) translate(844.17875 -140.44) scale(5) translate(-578.41212 49.32)"></path>
        <path id="path77568" style="font-style:normal;font-weight:normal;font-size:72px;line-height:1;font-family:'Brandmark Sans 39';font-variant-ligatures:normal;text-align:center;text-anchor:middle" d="m 608.49238,7.2 c 2.52,0 4.39199,-1.872 4.39199,-4.392 v -54.576 c 0,-2.52 -1.87199,-4.392 -4.39199,-4.392 h -8.42401 v 6.12 h 5.40001 c 0.57599,0 1.07999,0.504 1.07999,1.08 V 0 c 0,0.576 -0.504,1.08 -1.07999,1.08 h -5.40001 V 7.2 Z" stroke-width="0" stroke-linejoin="miter" stroke-miterlimit="2" fill="#409eff" stroke="#409eff" transform="translate(0 400.23999999999995) translate(952.4599999999999 -174.63999999999996) scale(5) translate(-600.06837 56.16)"></path>
      </g>
      <image xlink:href="" id="icon" style="display: none;" x="0" y="0"></image>
    </g>
  </g>
</svg>