<svg t="1758187350473" class="icon" viewBox="0 0 1024 1024" version="1.1" xmlns="http://www.w3.org/2000/svg" p-id="49302" width="200" height="200"><path d="M342.437647 290.394353a26.352941 26.352941 0 0 1 40.237177 33.882353l-2.288942 2.710588-192.542117 199.439059 191.849411 184.952471a26.352941 26.352941 0 0 1 3.011765 34.514823l-2.319059 2.740706a26.352941 26.352941 0 0 1-34.514823 3.011765l-2.740706-2.319059-210.823529-203.233883a26.352941 26.352941 0 0 1-3.011765-34.544941l2.319059-2.710588 210.823529-218.443294zM624.218353 289.731765a26.352941 26.352941 0 0 1 34.605176-1.746824l2.650353 2.409412 210.82353 218.413176a26.352941 26.352941 0 0 1 1.746823 34.635295l-2.409411 2.650352-210.82353 203.233883a26.352941 26.352941 0 0 1-39.002353-35.297883l2.409412-2.650352 191.849412-184.922353-192.512-199.439059a26.352941 26.352941 0 0 1-1.746824-34.635294l2.409412-2.650353zM576.752941 124.626824c13.251765 2.319059 22.437647 14.155294 21.805177 27.226352l-0.361412 3.282824-122.970353 702.735059a26.352941 26.352941 0 0 1-52.284235-5.782588l0.361411-3.312942L546.273882 146.070588a26.352941 26.352941 0 0 1 27.226353-21.775059l3.282824 0.361412z" fill="#000000" p-id="49303"></path></svg>