<svg t="1758247061856" class="icon" viewBox="0 0 1024 1024" version="1.1" xmlns="http://www.w3.org/2000/svg" p-id="12263" width="200" height="200"><path d="M45.91488 98.816Q54.93888 64 64.60288 64.64t22.528 26.432q7.744 12.8 12.8 19.968a30.976 30.976 0 0 0 12.224 10.304 46.72 46.72 0 0 0 16.128 3.84q9.024 0.64 23.168 0.64h498.816q23.168 0 37.376-1.28a77.44 77.44 0 0 0 23.168-5.184 28.992 28.992 0 0 0 13.504-10.944q4.48-7.104 10.944-19.968 11.584-24.512 21.888-24.512 16.768 0 16.768 25.6l-2.56 220.416a33.472 33.472 0 0 1-3.2 16.128 6.912 6.912 0 0 1-9.024 3.84 27.2 27.2 0 0 1-12.224-12.8 126.976 126.976 0 0 1-11.584-36.736q-6.4-25.6-12.8-44.48a75.968 75.968 0 0 0-19.2-30.912 78.592 78.592 0 0 0-34.176-18.048 213.504 213.504 0 0 0-54.784-5.824H471.06688v639.296a87.36 87.36 0 0 0 8.384 45.76 58.112 58.112 0 0 0 35.456 18.688l100.544 21.888v28.352q-33.536-2.56-97.28-3.2t-141.056-0.512q-76.032 0-131.456 0.64a619.84 619.84 0 0 0-70.912 3.2v-28.352l94.144-17.728a74.496 74.496 0 0 0 48.96-22.528 80 80 0 0 0 11.584-47.04V181.312H186.39488a131.2 131.2 0 0 0-38.016 2.56 78.08 78.08 0 0 0-31.552 16.768 274.24 274.24 0 0 0-34.176 35.456q-18.688 22.528-43.2 58.624a137.408 137.408 0 0 1-25.6 30.912q-9.024 6.4-11.584 0.64a46.72 46.72 0 0 1-1.28-20.608 269.76 269.76 0 0 1 5.184-32.896z" p-id="12264"></path><path d="M608.34688 451.328q5.184-19.904 10.688-19.2t12.8 15.104q4.416 7.36 7.36 11.392a17.728 17.728 0 0 0 6.976 5.888 26.688 26.688 0 0 0 9.216 2.24q5.184 0.384 13.248 0.384h285.056q13.248 0 21.376-0.768a44.224 44.224 0 0 0 13.248-2.944 16.576 16.576 0 0 0 7.744-6.4q2.56-4.032 6.4-11.392 6.4-14.016 12.8-14.016 9.6 0 9.6 14.72l-1.984 125.44a19.2 19.2 0 0 1-1.856 9.216 3.968 3.968 0 0 1-5.184 2.24 15.552 15.552 0 0 1-6.976-7.36 72.512 72.512 0 0 1-6.4-20.992q-3.712-14.72-7.36-25.6a43.392 43.392 0 0 0-11.072-17.664 44.8 44.8 0 0 0-19.2-10.304 121.984 121.984 0 0 0-31.296-3.328h-82.176v365.632a49.92 49.92 0 0 0 4.8 26.112 33.152 33.152 0 0 0 20.224 10.688l57.6 12.8v16.192q-19.2-1.472-55.616-1.856t-80.64-0.384q-43.456 0-75.072 0.384a354.048 354.048 0 0 0-40.512 1.856v-16.192l53.76-10.304a42.56 42.56 0 0 0 27.968-12.8 45.696 45.696 0 0 0 6.4-26.88V498.752h-81.664a74.944 74.944 0 0 0-21.696 1.472 44.8 44.8 0 0 0-18.048 9.6 156.672 156.672 0 0 0-19.2 20.224q-10.688 12.8-24.64 33.472a78.464 78.464 0 0 1-14.72 17.664q-5.184 3.712-6.4 0.384a26.688 26.688 0 0 1-0.768-11.776 154.112 154.112 0 0 1 2.944-18.752z" p-id="12265"></path></svg>