<svg t="1758186278366" class="icon" viewBox="0 0 1024 1024" version="1.1" xmlns="http://www.w3.org/2000/svg" p-id="47759" width="200" height="200"><path d="M0 0h1024v1024H0z" fill="#D8D8D8" fill-opacity="0" p-id="47760"></path><path d="M495.676235 120.470588H267.294118A26.352941 26.352941 0 0 0 240.941176 146.823529v351.382589c0 14.546824 11.806118 26.352941 26.352942 26.352941h228.382117c111.314824 0 201.487059-90.473412 201.487059-202.059294 0-111.555765-90.172235-202.029176-201.487059-202.029177zM293.647059 471.823059V173.176471h202.029176c82.160941 0 148.781176 66.861176 148.781177 149.323294 0 82.522353-66.620235 149.353412-148.781177 149.353411l-202.029176-0.030117z" fill="#000000" p-id="47761"></path><path d="M566.512941 471.853176H267.294118a26.352941 26.352941 0 0 0-26.352942 26.352942v351.35247c0 14.576941 11.806118 26.352941 26.352942 26.352941h299.218823c111.284706 0 201.487059-90.473412 201.487059-202.029176s-90.202353-202.029176-201.487059-202.029177zM293.647059 823.205647v-298.676706h272.865882c82.160941 0 148.781176 66.861176 148.781177 149.353412 0 82.492235-66.620235 149.323294-148.781177 149.323294H293.647059z" fill="#000000" p-id="47762"></path></svg>