<svg t="1758186940090" class="icon" viewBox="0 0 1024 1024" version="1.1" xmlns="http://www.w3.org/2000/svg" p-id="48838" width="200" height="200"><path d="M844.559059 471.853176a26.352941 26.352941 0 0 1 3.312941 52.495059l-3.312941 0.210824H176.941176a26.352941 26.352941 0 0 1-3.312941-52.525177l3.312941-0.180706h667.617883z" fill="#000000" p-id="48839"></path><path d="M486.068706 488.929882a26.352941 26.352941 0 0 1 33.942588-15.420235c138.962824 52.103529 205.402353 145.709176 187.994353 244.495059-15.841882 89.720471-99.207529 157.906824-197.270588 157.906823-84.600471 0-147.757176-29.726118-191.126588-79.269647-26.172235-29.906824-39.936-59.934118-45.266824-81.227294a26.352941 26.352941 0 1 1 51.139765-12.8l1.204706 3.945412 0.963764 2.710588 2.710589 6.746353 1.746823 3.97553c6.535529 14.275765 15.510588 28.611765 27.166118 41.953882 33.520941 38.279529 82.341647 61.259294 151.491764 61.259294 72.734118 0 133.993412-50.115765 145.317648-114.386823 12.589176-71.378824-37.647059-142.095059-154.593883-185.946353a26.352941 26.352941 0 0 1-15.420235-33.942589zM510.735059 120.470588c76.920471 0 138.029176 29.635765 183.92847 78.607059 27.407059 29.214118 43.881412 58.488471 51.59153 79.028706a26.352941 26.352941 0 0 1-49.362824 18.522353l-0.752941-1.867294-2.379294-5.240471a170.345412 170.345412 0 0 0-1.626353-3.312941l-4.216471-7.890824a223.713882 223.713882 0 0 0-31.683764-43.188705c-36.442353-38.851765-84.028235-61.952-145.468236-61.952-131.704471 0-190.223059 105.712941-125.349647 205.221647a26.352941 26.352941 0 0 1-44.15247 28.79247C253.379765 272.414118 337.468235 120.470588 510.735059 120.470588z" fill="#000000" p-id="48840"></path><path d="M643.764706 581.541647a26.352941 26.352941 0 0 1 36.442353 7.68c85.112471 130.499765-8.553412 286.72-169.472 286.72-69.270588 0-128.271059-29.515294-176.730353-78.004706-28.611765-28.611765-47.706353-57.223529-57.645177-77.131294a26.352941 26.352941 0 1 1 47.134118-23.582118l3.403294 6.174118 3.553883 5.872941 4.577882 7.077647a291.689412 291.689412 0 0 0 36.231529 44.303059c39.363765 39.363765 85.744941 62.554353 139.474824 62.554353 120.32 0 186.849882-110.893176 125.349647-205.191529a26.352941 26.352941 0 0 1 7.68-36.472471z" fill="#000000" p-id="48841"></path></svg>