<svg t="1758186386066" class="icon" viewBox="0 0 1024 1024" version="1.1" xmlns="http://www.w3.org/2000/svg" p-id="48069" width="200" height="200"><path d="M719.058824 181.549176a26.352941 26.352941 0 0 1 3.312941 52.495059l-3.312941 0.210824h-281.088a26.352941 26.352941 0 0 1-3.312942-52.495059l3.312942-0.210824h281.088zM578.499765 814.019765a26.352941 26.352941 0 0 1 3.312941 52.495059l-3.312941 0.210823H297.411765a26.352941 26.352941 0 0 1-3.312941-52.495059l3.312941-0.210823h281.088z" fill="#000000" p-id="48070"></path><path d="M570.699294 200.011294a26.352941 26.352941 0 0 1 51.471059 10.842353l-0.692706 3.252706L445.741176 847.420235a26.352941 26.352941 0 0 1-51.471058-10.842353l0.692706-3.252706L570.729412 200.011294z" fill="#000000" p-id="48071"></path></svg>