<svg t="1758247809429" class="icon" viewBox="0 0 1024 1024" version="1.1" xmlns="http://www.w3.org/2000/svg" p-id="40984" width="200" height="200"><path d="M213.333333 567.466667l32-102.4c23.466667-70.4 42.666667-136.533333 64-211.2h4.266667c21.333333 72.533333 40.533333 140.8 64 211.2l32 102.4H213.333333z m277.333334 251.733333h74.666666l-213.333333-625.066667h-76.8l-213.333333 625.066667h70.4l64-196.266667h232.533333l61.866667 196.266667z m264.533333 12.8c59.733333-4.266667 115.2-27.733333 157.866667-68.266667h2.133333V810.666667h64V531.2c0-113.066667-44.8-189.866667-160-189.866667-66.133333 2.133333-128 23.466667-183.466667 61.866667l27.733334 49.066667c40.533333-32 91.733333-49.066667 142.933333-51.2 81.066667 0 108.8 70.4 106.666667 132.266666-202.666667 23.466667-298.666667 66.133333-298.666667 166.4 4.266667 85.333333 64 132.266667 140.8 132.266667z m19.2-57.6c-46.933333 0-87.466667-23.466667-87.466667-78.933333 0-64 64-100.266667 230.4-119.466667v128c-46.933333 42.666667-93.866667 70.4-142.933333 70.4z" fill="#000000" p-id="40985"></path></svg>