<svg t="1758187634819" class="icon" viewBox="0 0 1024 1024" version="1.1" xmlns="http://www.w3.org/2000/svg" p-id="49766" width="200" height="200"><path d="M790.588235 154.352941a79.058824 79.058824 0 0 1 79.058824 79.058824v527.058823a79.058824 79.058824 0 0 1-79.058824 79.058824H263.529412a79.058824 79.058824 0 0 1-79.058824-79.058824V233.411765A79.058824 79.058824 0 0 1 263.529412 154.352941h527.058823z m0 52.705883H263.529412a26.352941 26.352941 0 0 0-26.352941 26.352941v527.058823c0 14.546824 11.806118 26.352941 26.352941 26.352941h527.058823a26.352941 26.352941 0 0 0 26.352941-26.352941V233.411765a26.352941 26.352941 0 0 0-26.352941-26.352941z" fill="#000000" p-id="49767"></path><path d="M421.647059 277.323294a114.206118 114.206118 0 1 1 0 228.412235 114.206118 114.206118 0 0 1 0-228.412235z m0 52.705882a61.500235 61.500235 0 1 0 0 123.000471 61.500235 61.500235 0 0 0 0-123.000471zM572.536471 520.131765a61.500235 61.500235 0 0 1 99.689411 1.65647l154.172236 221.06353c28.431059 40.779294-0.752941 96.677647-50.447059 96.677647h-389.421177a26.352941 26.352941 0 0 1-21.142588-42.134588l207.149177-277.232942z m56.470588 31.804235a8.794353 8.794353 0 0 0-14.245647-0.240941l-175.706353 235.098353 336.896 0.030117a8.794353 8.794353 0 0 0 8.192-12.016941l-0.993883-1.807059-154.142117-221.063529z" fill="#000000" p-id="49768"></path></svg>