<svg t="1758187287105" class="icon" viewBox="0 0 1024 1024" version="1.1" xmlns="http://www.w3.org/2000/svg" p-id="49147" width="200" height="200"><path d="M0 0h1024v1024H0z" fill="#D8D8D8" fill-opacity="0" p-id="49148"></path><path d="M607.382588 415.382588a26.352941 26.352941 0 0 1 3.312941 52.495059l-3.312941 0.210824h-175.706353a114.206118 114.206118 0 0 0-5.872941 228.231529l5.872941 0.150588h281.118118a114.206118 114.206118 0 0 0 85.654588-189.741176 26.352941 26.352941 0 0 1 39.514353-34.846118 166.912 166.912 0 0 1-118.603294 277.172706l-6.565647 0.120471h-281.118118a166.912 166.912 0 0 1-6.535529-333.70353l6.535529-0.090353h175.706353z" fill="#000000" p-id="49149"></path><path d="M572.235294 274.823529a166.912 166.912 0 0 1 6.565647 333.70353l-6.565647 0.090353h-175.676235a26.352941 26.352941 0 0 1-3.312941-52.495059l3.312941-0.210824H572.235294a114.206118 114.206118 0 0 0 5.872941-228.231529L572.235294 327.529412H291.147294a114.206118 114.206118 0 0 0-85.654588 189.741176 26.352941 26.352941 0 0 1-39.514353 34.846118A166.912 166.912 0 0 1 284.581647 274.974118l6.565647-0.120471H572.235294z" fill="#000000" p-id="49150"></path></svg>