<svg t="1758271332260" class="icon" viewBox="0 0 1024 1024" version="1.1" xmlns="http://www.w3.org/2000/svg" p-id="47614" width="200" height="200"><path d="M220.852706 184.470588a96.617412 96.617412 0 1 0 0 193.264941 96.617412 96.617412 0 0 0 0-193.264941z m0 52.705883a43.911529 43.911529 0 1 1 0 87.853176 43.911529 43.911529 0 0 1 0-87.853176zM220.852706 465.558588a61.500235 61.500235 0 1 0 0 123.000471 61.500235 61.500235 0 0 0 0-123.000471z m0 52.705883a8.794353 8.794353 0 1 1 0 17.588705 8.794353 8.794353 0 0 1 0-17.588705zM220.852706 711.529412a61.500235 61.500235 0 1 0 0 122.970353 61.500235 61.500235 0 0 0 0-122.970353z m0 52.705882a8.794353 8.794353 0 1 1 0 17.558588 8.794353 8.794353 0 0 1 0-17.558588zM853.323294 500.705882a26.352941 26.352941 0 0 1 3.312941 52.495059l-3.312941 0.210824h-421.647059a26.352941 26.352941 0 0 1-3.312941-52.495059l3.312941-0.210824h421.647059zM853.323294 746.676706a26.352941 26.352941 0 0 1 3.312941 52.495059l-3.312941 0.210823h-421.647059a26.352941 26.352941 0 0 1-3.312941-52.525176l3.312941-0.180706h421.647059zM853.323294 254.735059a26.352941 26.352941 0 0 1 3.312941 52.525176l-3.312941 0.180706h-421.647059a26.352941 26.352941 0 0 1-3.312941-52.495059l3.312941-0.210823h421.647059z" fill="#000000" p-id="47615"></path></svg>