<svg t="1758270742254" class="icon" viewBox="0 0 1024 1024" version="1.1" xmlns="http://www.w3.org/2000/svg" p-id="47455" width="200" height="200"><path d="M229.647059 150.588235c13.432471 0 24.515765 10.059294 26.142117 23.04l0.210824 3.312941v158.117648a26.352941 26.352941 0 0 1-52.495059 3.312941l-0.210823-3.312941v-158.117648c0-14.546824 11.806118-26.352941 26.352941-26.352941z" fill="#000000" p-id="47456"></path><path d="M282.352941 308.705882a26.352941 26.352941 0 0 1 3.312941 52.495059l-3.312941 0.210824h-105.411765a26.352941 26.352941 0 0 1-3.312941-52.495059l3.312941-0.210824h105.411765zM282.352941 554.676706a26.352941 26.352941 0 0 1 3.312941 52.495059l-3.312941 0.210823h-105.411765a26.352941 26.352941 0 0 1-3.312941-52.495059l3.312941-0.210823h105.411765z" fill="#000000" p-id="47457"></path><path d="M177.664 424.146824c20.48-13.131294 42.345412-19.576471 64.963765-13.914353 17.347765 4.336941 32.346353 15.600941 44.092235 33.189647 11.233882 16.865882 13.432471 36.050824 7.68 55.205647-7.288471 24.304941-26.322824 47.073882-53.549176 69.662117-11.113412 9.246118-22.889412 17.829647-34.725648 25.6l-11.023058 6.987294-5.089883 3.011765a26.352941 26.352941 0 0 1-26.142117-45.778823l6.686117-4.035765 6.625883-4.216471c10.24-6.776471 20.540235-14.245647 29.997176-22.106353 19.877647-16.504471 33.159529-32.406588 36.74353-44.272941 1.385412-4.698353 1.054118-7.649882-1.054118-10.842353-4.758588-7.077647-8.975059-10.24-13.010824-11.264-5.722353-1.445647-14.275765 1.054118-23.702588 7.107765a83.696941 83.696941 0 0 0-5.421176 3.794824l-3.885177 3.19247-1.264941 1.204706a26.352941 26.352941 0 0 1-37.285647-37.255529c4.156235-4.156235 10.752-9.728 19.365647-15.269647zM174.049882 677.647059c29.424941-24.335059 66.891294-29.997176 105.35153-4.367059 11.504941 7.68 20.329412 16.474353 26.292706 26.443294 14.998588 24.997647 10.390588 50.537412-4.909177 73.185882l-0.993882 1.355295 0.993882 1.385411c14.275765 21.142588 19.245176 44.815059 7.649883 68.186353l-2.740706 4.99953c-5.963294 9.938824-14.757647 18.763294-26.292706 26.413176-38.460235 25.660235-75.926588 19.998118-105.35153-4.367059a98.876235 98.876235 0 0 1-19.034353-20.48 26.352941 26.352941 0 0 1 41.86353-31.894588l1.987765 2.650353c1.174588 1.716706 4.276706 5.421176 8.794352 9.125647 12.860235 10.661647 25.389176 12.528941 42.526118 1.114353 5.330824-3.553882 8.583529-6.806588 10.300235-9.667765 2.680471-4.457412 1.295059-10.480941-5.059764-18.974117a64.030118 64.030118 0 0 0-3.523765-4.246589l-2.921412-3.011764-1.054117-0.963765a26.352941 26.352941 0 0 1-2.529883-38.128941l4.939294-4.668235a62.644706 62.644706 0 0 0 5.089883-5.963295c6.324706-8.463059 7.740235-14.486588 5.059764-18.944-1.716706-2.861176-4.969412-6.144-10.300235-9.697882-17.167059-11.414588-29.665882-9.517176-42.526118 1.144471-3.614118 2.951529-6.324706 5.903059-7.860705 7.860706l-0.90353 1.264941a26.352941 26.352941 0 1 1-43.881412-29.214118c3.794824-5.692235 10.089412-13.131294 19.034353-20.510118z" fill="#000000" p-id="47458"></path><path d="M264.794353 747.911529a26.352941 26.352941 0 0 1 3.312941 52.525177l-3.312941 0.180706H229.647059a26.352941 26.352941 0 0 1-3.312941-52.495059l3.312941-0.210824h35.147294zM215.04 155.015529a26.352941 26.352941 0 0 1 31.864471 41.86353l-2.620236 1.987765L191.548235 234.014118a26.352941 26.352941 0 0 1-31.894588-41.86353l2.650353-1.987764 52.705882-35.147295zM826.970353 501.970824a26.352941 26.352941 0 0 1 3.312941 52.495058l-3.312941 0.210824H440.470588a26.352941 26.352941 0 0 1-3.312941-52.495059l3.312941-0.210823h386.499765zM826.970353 747.911529a26.352941 26.352941 0 0 1 3.312941 52.525177l-3.312941 0.180706H440.470588a26.352941 26.352941 0 0 1-3.312941-52.495059l3.312941-0.210824h386.499765zM826.970353 256a26.352941 26.352941 0 0 1 3.312941 52.495059l-3.312941 0.210823H440.470588a26.352941 26.352941 0 0 1-3.312941-52.495058l3.312941-0.210824h386.499765z" fill="#000000" p-id="47459"></path></svg>