<svg t="1758188844488" class="icon" viewBox="0 0 1024 1024" version="1.1" xmlns="http://www.w3.org/2000/svg" p-id="171428" width="200" height="200"><path d="M433.573647 245.549176c-132.306824 84.931765-205.793882 183.838118-220.491294 296.658824-22.889412 175.646118 134.174118 261.632 213.775059 184.380235 79.570824-77.251765 31.864471-175.284706-25.750588-202.089411-57.645176-26.804706-92.882824-17.468235-86.738824-53.278118 6.144-35.84 88.154353-135.107765 160.165647-181.338353a13.161412 13.161412 0 0 0 1.987765-17.950118l-17.769412-23.130353c-7.770353-10.059294-15.179294-9.697882-25.178353-3.252706zM781.884235 245.549176c-132.306824 84.931765-205.793882 183.838118-220.491294 296.658824-22.889412 175.646118 134.174118 261.632 213.775059 184.380235 79.570824-77.251765 31.864471-175.284706-25.750588-202.089411-57.645176-26.804706-92.882824-17.468235-86.738824-53.278118 6.144-35.84 88.154353-135.107765 160.165647-181.338353a13.161412 13.161412 0 0 0 1.987765-17.950118l-17.769412-23.130353c-7.770353-10.059294-15.179294-9.697882-25.178353-3.252706z" fill="#000000" p-id="171429"></path></svg>