<svg t="1758187563559" class="icon" viewBox="0 0 1024 1024" version="1.1" xmlns="http://www.w3.org/2000/svg" p-id="49611" width="200" height="200"><path d="M795.858824 184.470588H258.258824a73.788235 73.788235 0 0 0-73.788236 73.788236v537.6a73.788235 73.788235 0 0 0 73.788236 73.788235h537.6a73.788235 73.788235 0 0 0 73.788235-73.788235V258.258824a73.788235 73.788235 0 0 0-73.788235-73.788236z m-537.6 52.705883h537.6a21.082353 21.082353 0 0 1 21.082352 21.082353v537.6a21.082353 21.082353 0 0 1-21.082352 21.082352H258.258824a21.082353 21.082353 0 0 1-21.082353-21.082352V258.258824a21.082353 21.082353 0 0 1 21.082353-21.082353z" fill="#000000" p-id="49612"></path><path d="M421.647059 184.470588c13.432471 0 24.515765 10.059294 26.142117 23.04l0.210824 3.312941v632.470589a26.352941 26.352941 0 0 1-52.495059 3.312941l-0.210823-3.312941V210.823529c0-14.546824 11.806118-26.352941 26.352941-26.352941zM632.470588 184.470588c13.432471 0 24.515765 10.059294 26.142118 23.04l0.210823 3.312941v632.470589a26.352941 26.352941 0 0 1-52.495058 3.312941l-0.210824-3.312941V210.823529c0-14.546824 11.806118-26.352941 26.352941-26.352941z" fill="#000000" p-id="49613"></path><path d="M843.294118 395.294118a26.352941 26.352941 0 0 1 3.312941 52.495058l-3.312941 0.210824H210.823529a26.352941 26.352941 0 0 1-3.312941-52.495059l3.312941-0.210823h632.470589zM843.294118 606.117647a26.352941 26.352941 0 0 1 3.312941 52.495059l-3.312941 0.210823H210.823529a26.352941 26.352941 0 0 1-3.312941-52.495058l3.312941-0.210824h632.470589z" fill="#000000" p-id="49614"></path></svg>