<svg t="1758189127638" class="icon" viewBox="0 0 1024 1024" version="1.1" xmlns="http://www.w3.org/2000/svg" p-id="172032" width="200" height="200"><path d="M839.529412 210.823529a26.352941 26.352941 0 0 1 3.312941 52.495059l-3.312941 0.210824h-632.470588a26.352941 26.352941 0 0 1-3.312942-52.495059L207.058824 210.823529h632.470588zM698.970353 386.499765a26.352941 26.352941 0 0 1 3.312941 52.525176l-3.312941 0.180706H207.058824a26.352941 26.352941 0 0 1-3.312942-52.495059l3.312942-0.210823h491.911529zM839.529412 562.206118a26.352941 26.352941 0 0 1 3.312941 52.495058l-3.312941 0.210824h-632.470588a26.352941 26.352941 0 0 1-3.312942-52.525176l3.312942-0.180706h632.470588zM698.970353 737.882353a26.352941 26.352941 0 0 1 3.312941 52.495059l-3.312941 0.210823H207.058824a26.352941 26.352941 0 0 1-3.312942-52.495059l3.312942-0.210823h491.911529z" fill="#000000" p-id="172033"></path></svg>