<svg t="1758188811733" class="icon" viewBox="0 0 1024 1024" version="1.1" xmlns="http://www.w3.org/2000/svg" p-id="171273" width="200" height="200"><path d="M786.823529 180.705882h-527.058823A79.058824 79.058824 0 0 0 180.705882 259.764706v527.058823a79.058824 79.058824 0 0 0 79.058824 79.058824h527.058823a79.058824 79.058824 0 0 0 79.058824-79.058824v-527.058823A79.058824 79.058824 0 0 0 786.823529 180.705882z m-527.058823 52.705883h527.058823c14.546824 0 26.352941 11.806118 26.352942 26.352941v527.058823a26.352941 26.352941 0 0 1-26.352942 26.352942h-527.058823a26.352941 26.352941 0 0 1-26.352941-26.352942v-527.058823c0-14.546824 11.806118-26.352941 26.352941-26.352941z" fill="#000000" p-id="171274"></path><path d="M435.440941 487.062588v213.022118a26.352941 26.352941 0 0 0 39.544471 22.799059l184.470588-106.496a26.352941 26.352941 0 0 0 0-45.628236l-184.470588-106.526117a26.352941 26.352941 0 0 0-39.544471 22.829176z m52.705883 167.333647v-121.675294l105.411764 60.837647-105.411764 60.837647zM839.529412 338.823529a26.352941 26.352941 0 0 1 3.312941 52.495059l-3.312941 0.210824h-632.470588a26.352941 26.352941 0 0 1-3.312942-52.495059l3.312942-0.210824h632.470588z" fill="#000000" p-id="171275"></path><path d="M659.486118 192.451765a26.352941 26.352941 0 0 1 45.507764 26.352941l-1.65647 2.861176-105.411765 158.117647a26.352941 26.352941 0 0 1-45.507765-26.352941l1.656471-2.861176 105.411765-158.117647zM448.662588 192.451765a26.352941 26.352941 0 0 1 45.507765 26.352941l-1.656471 2.861176-105.411764 158.117647a26.352941 26.352941 0 0 1-45.507765-26.352941l1.656471-2.861176 105.411764-158.117647z" fill="#000000" p-id="171276"></path></svg>